<?xml version="1.0" encoding="UTF-8"?>
<!-- Generator: Adobe Illustrator 27.3.1, SVG Export Plug-In . SVG Version: 6.00 Build 0)  -->
<svg xmlns="http://www.w3.org/2000/svg" xmlns:xlink="http://www.w3.org/1999/xlink" version="1.1" id="Vrstva_1" x="0px" y="0px" viewBox="0 0 108.39 98.97" style="enable-background:new 0 0 108.39 98.97;" xml:space="preserve">
<style type="text/css">
	.st0{fill:#FFFFFF;}
	.st1{fill:#69B42E;}
	.st2{fill:#31BDEE;}
	.st3{fill:#3C3C3B;}
	.st4{fill:#35BDED;}
</style>
<rect x="14.69" y="63.15" class="st1" width="23.76" height="23.76"></rect>
<circle class="st4" cx="26.45" cy="23.89" r="13.63"></circle>
<path class="st3" d="M91.06,67.71L91.06,67.71l-18.4-18.41L91.07,30.9l-0.01-0.01c2.28-2.16,3.7-5.22,3.7-8.61  c0-6.56-5.32-11.88-11.88-11.88c-3.39,0-6.44,1.42-8.61,3.7l0,0L39.08,49.33l0,0l0,0l35.18,35.18l0.01-0.01  c2.16,2.28,5.22,3.7,8.61,3.7c6.56,0,11.88-5.32,11.88-11.88C94.76,72.93,93.33,69.88,91.06,67.71z"></path>
</svg>
